# xmcd
#
# Track frame offsets:
#	150
#	6015
#	28064
#	41125
#	63652
#	73982
#	91130
#	119773
#	132070
#	156276
#	173156
#	195718
#	211623
#
# Disc length: 3187 seconds
#
# Revision: 0
# Processed by: cddbd v1.5.1PL2 Copyright (c) Steve Scherf et al.
# Submitted via: audiograbber 1.82.01
#
DISCID=b80c710d
DTITLE=Various Artist - The Bombay Connection
DYEAR=2006
DGENRE=Bollywood
TTITLE0=Kalyanji-Anandji - Cabaret dance
TTITLE1=Asha Boshle - Main Hoon Lilly
TTITLE2=Sapan-Jagmohan - Giraffe Trapping Music
TTITLE3=Hemlata - Na na na yeh kyakarne lage ho
TTITLE4=Rahul Dev Burman - Incidental Music
TTITLE5=Instrumental - Pyar Chahiye Keh Paisa
TTITLE6=Mohammed Rafi and Asha Boshle - Yeh Jawani Hai Meri Jaan
TTITLE7=Kalyanji-Aanadji - Theme Music
TTITLE8=Asha Boshle - Yeh Dhuaan
TTITLE9=Govind-Naresh - Dance Music
TTITLE10=Salma Agha - Sote Sote Aadhi Raat
TTITLE11=Rahul Dev Burman - Title Music
TTITLE12=Amit Kumar and Sulahshana Pandit - Kya Jane Yeh Duniya Kya Jan
EXTD=
EXTT0=
EXTT1=
EXTT2=
EXTT3=
EXTT4=
EXTT5=
EXTT6=
EXTT7=
EXTT8=
EXTT9=
EXTT10=
EXTT11=
EXTT12=
PLAYORDER=
